<svg width="30" height="16" viewBox="0 0 30 16" fill="none" xmlns="http://www.w3.org/2000/svg">
<path fill-rule="evenodd" clip-rule="evenodd" d="M15 11.876C13.6353 14.3354 11.012 16 8 16C3.58172 16 0 12.4183 0 8C0 3.58172 3.58172 0 8 0C11.012 0 13.6353 1.66458 15 4.124C16.3647 1.66458 18.988 0 22 0C26.4183 0 30 3.58172 30 8C30 12.4183 26.4183 16 22 16C18.988 16 16.3647 14.3354 15 11.876ZM14.9227 4.26667H12.6121C11.5239 2.92428 9.86142 2.06667 7.99996 2.06667C5.30053 2.06667 3.01957 3.87024 2.30159 6.34031C2.29273 6.37079 2.28541 6.40214 2.27977 6.43333C2.27977 6.43333 2.13418 7.38551 2.13333 8C2.13249 8.61433 2.27538 9.56667 2.27538 9.56667C2.8259 11.5835 4.41644 13.1741 6.4333 13.7246C6.4333 13.7246 7.38565 13.8667 8 13.8667C8.61432 13.8667 9.56663 13.7246 9.56663 13.7246C11.5835 13.1741 13.174 11.5835 13.7245 9.56667H10.5C10.4763 9.56667 10.4529 9.56754 10.4298 9.56927L9.6 9.6L7.99997 6.43333H10.6365H13.7202H14.1533C14.3057 5.6659 14.5678 4.938 14.9227 4.26667ZM19.3635 6.43333H16.2798C16.2855 6.40214 16.2928 6.37079 16.3017 6.34031C16.5245 5.57353 16.898 4.87098 17.3879 4.26667C18.4761 2.92428 20.1386 2.06667 22 2.06667C24.6995 2.06667 26.9804 3.87024 27.6984 6.34031C27.7073 6.37079 27.7146 6.40214 27.7202 6.43333H24.6365C24.102 5.53539 23.1846 4.93333 22 4.93333C20.8154 4.93333 19.8981 5.53539 19.3635 6.43333ZM24.5 9.56667H27.7246C27.1741 11.5835 25.5836 13.1741 23.5667 13.7246V10.5C23.5667 9.98454 23.9846 9.56667 24.5 9.56667ZM16.2755 9.56667C16.826 11.5835 18.4165 13.1741 20.4334 13.7246V10.5C20.4334 10.0081 20.0529 9.60516 19.5702 9.56927C19.5471 9.56754 19.5237 9.56667 19.5 9.56667H16.2755Z" fill="url(#paint0_linear_12_90)"/>
<defs>
<linearGradient id="paint0_linear_12_90" x1="0" y1="0" x2="16.2618" y2="25.0594" gradientUnits="userSpaceOnUse">
<stop stop-color="#9CEDFF"/>
<stop offset="1" stop-color="#757FDB"/>
</linearGradient>
</defs>
</svg>
